<svg xmlns="http://www.w3.org/2000/svg" xmlns:xlink="http://www.w3.org/1999/xlink" width="103" zoomAndPan="magnify" viewBox="0 0 77.25 77.25" height="103" preserveAspectRatio="xMidYMid meet" version="1.0"><defs><clipPath id="69bd67dcc2"><path d="M 0 0 L 76.152344 0 L 76.152344 76.152344 L 0 76.152344 Z M 0 0 " clip-rule="nonzero"/></clipPath><clipPath id="b3b35f74bc"><path d="M 38.078125 0 C 17.046875 0 0 17.046875 0 38.078125 C 0 59.105469 17.046875 76.152344 38.078125 76.152344 C 59.105469 76.152344 76.152344 59.105469 76.152344 38.078125 C 76.152344 17.046875 59.105469 0 38.078125 0 Z M 38.078125 0 " clip-rule="nonzero"/></clipPath><clipPath id="7101534696"><path d="M 0 0 L 76.152344 0 L 76.152344 76.152344 L 0 76.152344 Z M 0 0 " clip-rule="nonzero"/></clipPath><clipPath id="04b282661e"><path d="M 38.078125 0 C 17.046875 0 0 17.046875 0 38.078125 C 0 59.105469 17.046875 76.152344 38.078125 76.152344 C 59.105469 76.152344 76.152344 59.105469 76.152344 38.078125 C 76.152344 17.046875 59.105469 0 38.078125 0 Z M 38.078125 0 " clip-rule="nonzero"/></clipPath><clipPath id="2df56a12eb"><rect x="0" width="77" y="0" height="77"/></clipPath><clipPath id="0d3f58eddc"><path d="M 7.648438 14.472656 L 68.375 14.472656 L 68.375 69.40625 L 7.648438 69.40625 Z M 7.648438 14.472656 " clip-rule="nonzero"/></clipPath><clipPath id="33399d2ab9"><path d="M 67.488281 26.078125 C 65.574219 19.589844 59.40625 14.472656 52.109375 14.472656 C 45.980469 14.472656 40.660156 17.929688 37.96875 23.003906 C 35.277344 17.929688 29.957031 14.472656 23.832031 14.472656 C 16.199219 14.472656 9.523438 19.589844 8.214844 27.015625 C 4.890625 45.847656 25.953125 60.589844 38.015625 69.40625 C 49.167969 61.257812 72.953125 44.636719 67.488281 26.078125 Z M 67.488281 26.078125 " clip-rule="nonzero"/></clipPath><clipPath id="62f92413aa"><path d="M 0.84375 0.472656 L 61.375 0.472656 L 61.375 55.40625 L 0.84375 55.40625 Z M 0.84375 0.472656 " clip-rule="nonzero"/></clipPath><clipPath id="7708c37d71"><path d="M 60.488281 12.078125 C 58.574219 5.589844 52.40625 0.472656 45.109375 0.472656 C 38.980469 0.472656 33.660156 3.929688 30.96875 9.003906 C 28.277344 3.929688 22.957031 0.472656 16.832031 0.472656 C 9.199219 0.472656 2.523438 5.589844 1.214844 13.015625 C -2.109375 31.847656 18.953125 46.589844 31.015625 55.40625 C 42.167969 47.257812 65.953125 30.636719 60.488281 12.078125 Z M 60.488281 12.078125 " clip-rule="nonzero"/></clipPath><clipPath id="f29c01f726"><rect x="0" width="62" y="0" height="56"/></clipPath></defs><g clip-path="url(#69bd67dcc2)"><g clip-path="url(#b3b35f74bc)"><g transform="matrix(1, 0, 0, 1, 0, -0.000000000000002558)"><g clip-path="url(#2df56a12eb)"><g clip-path="url(#7101534696)"><g clip-path="url(#04b282661e)"><path fill="#ffc994" d="M 0 0 L 76.152344 0 L 76.152344 76.152344 L 0 76.152344 Z M 0 0 " fill-opacity="1" fill-rule="nonzero"/></g></g></g></g></g></g><g clip-path="url(#0d3f58eddc)"><g clip-path="url(#33399d2ab9)"><g transform="matrix(1, 0, 0, 1, 7, 14)"><g clip-path="url(#f29c01f726)"><g clip-path="url(#62f92413aa)"><g clip-path="url(#7708c37d71)"><path fill="#fd0000" d="M 0.863281 0.472656 L 61.375 0.472656 L 61.375 55.40625 L 0.863281 55.40625 Z M 0.863281 0.472656 " fill-opacity="1" fill-rule="nonzero"/></g></g></g></g></g></g></svg>