<svg xmlns="http://www.w3.org/2000/svg" xmlns:xlink="http://www.w3.org/1999/xlink" width="103" zoomAndPan="magnify" viewBox="0 0 77.25 77.25" height="103" preserveAspectRatio="xMidYMid meet" version="1.0"><defs><clipPath id="321fa27202"><path d="M 0 0 L 76.152344 0 L 76.152344 76.152344 L 0 76.152344 Z M 0 0 " clip-rule="nonzero"/></clipPath><clipPath id="9e453188fe"><path d="M 38.078125 0 C 17.046875 0 0 17.046875 0 38.078125 C 0 59.105469 17.046875 76.152344 38.078125 76.152344 C 59.105469 76.152344 76.152344 59.105469 76.152344 38.078125 C 76.152344 17.046875 59.105469 0 38.078125 0 Z M 38.078125 0 " clip-rule="nonzero"/></clipPath><clipPath id="6e744faffb"><path d="M 0 0 L 76.152344 0 L 76.152344 76.152344 L 0 76.152344 Z M 0 0 " clip-rule="nonzero"/></clipPath><clipPath id="fbd200e13c"><path d="M 38.078125 0 C 17.046875 0 0 17.046875 0 38.078125 C 0 59.105469 17.046875 76.152344 38.078125 76.152344 C 59.105469 76.152344 76.152344 59.105469 76.152344 38.078125 C 76.152344 17.046875 59.105469 0 38.078125 0 Z M 38.078125 0 " clip-rule="nonzero"/></clipPath><clipPath id="c70e47561f"><rect x="0" width="77" y="0" height="77"/></clipPath><clipPath id="0b8d5d6ec8"><path d="M 21 12.773438 L 55 12.773438 L 55 62.539062 L 21 62.539062 Z M 21 12.773438 " clip-rule="nonzero"/></clipPath><clipPath id="4877c8795f"><path d="M 7.984375 21 L 19 21 L 19 62.539062 L 7.984375 62.539062 Z M 7.984375 21 " clip-rule="nonzero"/></clipPath><clipPath id="346de270c2"><path d="M 57 21 L 68.152344 21 L 68.152344 62.539062 L 57 62.539062 Z M 57 21 " clip-rule="nonzero"/></clipPath></defs><g clip-path="url(#321fa27202)"><g clip-path="url(#9e453188fe)"><g transform="matrix(1, 0, 0, 1, 0, -0.000000000000002558)"><g clip-path="url(#c70e47561f)"><g clip-path="url(#6e744faffb)"><g clip-path="url(#fbd200e13c)"><path fill="#ffc994" d="M 0 0 L 76.152344 0 L 76.152344 76.152344 L 0 76.152344 Z M 0 0 " fill-opacity="1" fill-rule="nonzero"/></g></g></g></g></g></g><g clip-path="url(#0b8d5d6ec8)"><path fill="#673721" d="M 21.539062 22.039062 L 29.617188 22.039062 L 29.617188 16.253906 C 29.625 14.132812 31.515625 12.792969 33.757812 12.796875 C 33.742188 12.792969 42.417969 12.796875 42.417969 12.796875 C 44.664062 12.792969 46.523438 14.132812 46.527344 16.253906 L 46.527344 22.039062 L 54.707031 22.039062 L 54.707031 62.535156 L 21.539062 62.535156 L 21.539062 22.039062 " fill-opacity="1" fill-rule="nonzero"/></g><g clip-path="url(#4877c8795f)"><path fill="#673721" d="M 18.492188 62.464844 L 14.042969 62.464844 C 10.972656 62.472656 8 60.214844 7.980469 56.304688 C 7.980469 56.304688 8 28.195312 7.980469 28.132812 C 8 24.628906 10.902344 21.984375 14.042969 21.972656 L 18.492188 21.972656 L 18.492188 62.464844 " fill-opacity="1" fill-rule="nonzero"/></g><path fill="#ffffff" d="M 32.59375 22.039062 L 43.445312 22.039062 L 43.445312 16.050781 L 32.59375 16.050781 Z M 32.59375 22.039062 " fill-opacity="1" fill-rule="nonzero"/><g clip-path="url(#346de270c2)"><path fill="#673721" d="M 57.652344 62.464844 L 62.101562 62.464844 C 65.171875 62.472656 68.148438 60.214844 68.160156 56.304688 C 68.160156 56.304688 68.148438 28.195312 68.160156 28.132812 C 68.148438 24.628906 65.246094 21.984375 62.101562 21.972656 L 57.652344 21.972656 L 57.652344 62.464844 " fill-opacity="1" fill-rule="nonzero"/></g></svg>