<svg xmlns="http://www.w3.org/2000/svg" xmlns:xlink="http://www.w3.org/1999/xlink" width="103" zoomAndPan="magnify" viewBox="0 0 77.25 77.25" height="103" preserveAspectRatio="xMidYMid meet" version="1.0"><defs><clipPath id="f9d8a1ba6d"><path d="M 0 0 L 76.152344 0 L 76.152344 76.152344 L 0 76.152344 Z M 0 0 " clip-rule="nonzero"/></clipPath><clipPath id="62406127f8"><path d="M 38.078125 0 C 17.046875 0 0 17.046875 0 38.078125 C 0 59.105469 17.046875 76.152344 38.078125 76.152344 C 59.105469 76.152344 76.152344 59.105469 76.152344 38.078125 C 76.152344 17.046875 59.105469 0 38.078125 0 Z M 38.078125 0 " clip-rule="nonzero"/></clipPath><clipPath id="120f31f91b"><path d="M 0 0 L 76.152344 0 L 76.152344 76.152344 L 0 76.152344 Z M 0 0 " clip-rule="nonzero"/></clipPath><clipPath id="a16d611392"><path d="M 38.078125 0 C 17.046875 0 0 17.046875 0 38.078125 C 0 59.105469 17.046875 76.152344 38.078125 76.152344 C 59.105469 76.152344 76.152344 59.105469 76.152344 38.078125 C 76.152344 17.046875 59.105469 0 38.078125 0 Z M 38.078125 0 " clip-rule="nonzero"/></clipPath><clipPath id="77529e6b6a"><rect x="0" width="77" y="0" height="77"/></clipPath><clipPath id="937cf83302"><path d="M 8.171875 9 L 67 9 L 67 67.625 L 8.171875 67.625 Z M 8.171875 9 " clip-rule="nonzero"/></clipPath><clipPath id="6078a9714d"><path d="M 60 11 L 70.566406 11 L 70.566406 18 L 60 18 Z M 60 11 " clip-rule="nonzero"/></clipPath><clipPath id="2e36bd3d2d"><path d="M 60 7.457031 L 66 7.457031 L 66 18 L 60 18 Z M 60 7.457031 " clip-rule="nonzero"/></clipPath></defs><g clip-path="url(#f9d8a1ba6d)"><g clip-path="url(#62406127f8)"><g transform="matrix(1, 0, 0, 1, 0, -0.000000000000002558)"><g clip-path="url(#77529e6b6a)"><g clip-path="url(#120f31f91b)"><g clip-path="url(#a16d611392)"><path fill="#ffc994" d="M 0 0 L 76.152344 0 L 76.152344 76.152344 L 0 76.152344 Z M 0 0 " fill-opacity="1" fill-rule="nonzero"/></g></g></g></g></g></g><g clip-path="url(#937cf83302)"><path fill="#ff0000" d="M 66.335938 38.691406 C 66.335938 39.636719 66.289062 40.582031 66.195312 41.527344 C 66.101562 42.46875 65.964844 43.40625 65.777344 44.332031 C 65.589844 45.261719 65.359375 46.179688 65.085938 47.089844 C 64.808594 47.996094 64.488281 48.886719 64.121094 49.761719 C 63.757812 50.636719 63.351562 51.492188 62.902344 52.328125 C 62.453125 53.164062 61.964844 53.976562 61.4375 54.761719 C 60.90625 55.550781 60.339844 56.3125 59.738281 57.042969 C 59.132812 57.777344 58.492188 58.476562 57.820312 59.148438 C 57.148438 59.816406 56.441406 60.453125 55.707031 61.054688 C 54.96875 61.652344 54.207031 62.21875 53.414062 62.746094 C 52.621094 63.269531 51.808594 63.757812 50.96875 64.203125 C 50.128906 64.652344 49.269531 65.054688 48.386719 65.417969 C 47.507812 65.78125 46.613281 66.097656 45.703125 66.375 C 44.789062 66.648438 43.867188 66.878906 42.933594 67.0625 C 42 67.25 41.058594 67.386719 40.113281 67.480469 C 39.164062 67.574219 38.214844 67.621094 37.261719 67.621094 C 36.308594 67.621094 35.359375 67.574219 34.410156 67.480469 C 33.464844 67.386719 32.523438 67.25 31.589844 67.0625 C 30.65625 66.878906 29.734375 66.648438 28.820312 66.375 C 27.910156 66.097656 27.015625 65.78125 26.136719 65.417969 C 25.253906 65.054688 24.394531 64.652344 23.554688 64.203125 C 22.714844 63.757812 21.902344 63.269531 21.109375 62.746094 C 20.316406 62.21875 19.554688 61.652344 18.816406 61.054688 C 18.082031 60.453125 17.375 59.816406 16.703125 59.148438 C 16.03125 58.476562 15.390625 57.777344 14.789062 57.042969 C 14.183594 56.3125 13.617188 55.550781 13.085938 54.761719 C 12.558594 53.976562 12.070312 53.164062 11.621094 52.328125 C 11.171875 51.492188 10.765625 50.636719 10.402344 49.761719 C 10.035156 48.886719 9.714844 47.996094 9.441406 47.089844 C 9.164062 46.179688 8.933594 45.261719 8.746094 44.332031 C 8.558594 43.40625 8.421875 42.46875 8.328125 41.527344 C 8.234375 40.582031 8.1875 39.636719 8.1875 38.691406 C 8.1875 37.742188 8.234375 36.796875 8.328125 35.855469 C 8.421875 34.910156 8.558594 33.976562 8.746094 33.046875 C 8.933594 32.117188 9.164062 31.199219 9.441406 30.292969 C 9.714844 29.386719 10.035156 28.496094 10.402344 27.617188 C 10.765625 26.742188 11.171875 25.886719 11.621094 25.050781 C 12.070312 24.21875 12.558594 23.40625 13.085938 22.617188 C 13.617188 21.828125 14.183594 21.070312 14.789062 20.335938 C 15.390625 19.605469 16.03125 18.902344 16.703125 18.234375 C 17.375 17.5625 18.082031 16.929688 18.816406 16.328125 C 19.554688 15.726562 20.316406 15.160156 21.109375 14.636719 C 21.902344 14.109375 22.714844 13.621094 23.554688 13.175781 C 24.394531 12.730469 25.253906 12.324219 26.136719 11.960938 C 27.015625 11.601562 27.910156 11.28125 28.820312 11.003906 C 29.734375 10.730469 30.65625 10.5 31.589844 10.316406 C 32.523438 10.132812 33.464844 9.992188 34.410156 9.898438 C 35.359375 9.804688 36.308594 9.761719 37.261719 9.761719 C 38.214844 9.761719 39.164062 9.804688 40.113281 9.898438 C 41.058594 9.992188 42 10.132812 42.933594 10.316406 C 43.867188 10.5 44.789062 10.730469 45.703125 11.003906 C 46.613281 11.28125 47.507812 11.601562 48.386719 11.960938 C 49.269531 12.324219 50.128906 12.730469 50.96875 13.175781 C 51.808594 13.621094 52.621094 14.109375 53.414062 14.636719 C 54.207031 15.160156 54.96875 15.726562 55.707031 16.328125 C 56.441406 16.929688 57.148438 17.5625 57.820312 18.234375 C 58.492188 18.902344 59.132812 19.605469 59.738281 20.335938 C 60.339844 21.070312 60.90625 21.828125 61.4375 22.617188 C 61.964844 23.40625 62.453125 24.21875 62.902344 25.050781 C 63.351562 25.886719 63.757812 26.742188 64.121094 27.617188 C 64.488281 28.496094 64.808594 29.386719 65.085938 30.292969 C 65.359375 31.199219 65.589844 32.117188 65.777344 33.046875 C 65.964844 33.976562 66.101562 34.910156 66.195312 35.855469 C 66.289062 36.796875 66.335938 37.742188 66.335938 38.691406 Z M 66.335938 38.691406 " fill-opacity="1" fill-rule="nonzero"/></g><path fill="#ffffff" d="M 60.121094 38.691406 C 60.121094 39.433594 60.082031 40.179688 60.011719 40.917969 C 59.9375 41.660156 59.828125 42.398438 59.679688 43.128906 C 59.535156 43.859375 59.351562 44.578125 59.136719 45.292969 C 58.917969 46.003906 58.667969 46.707031 58.378906 47.394531 C 58.09375 48.082031 57.773438 48.753906 57.421875 49.410156 C 57.066406 50.070312 56.683594 50.707031 56.269531 51.328125 C 55.851562 51.945312 55.40625 52.542969 54.929688 53.121094 C 54.457031 53.695312 53.953125 54.246094 53.425781 54.773438 C 52.894531 55.300781 52.339844 55.800781 51.761719 56.273438 C 51.183594 56.746094 50.582031 57.1875 49.960938 57.601562 C 49.339844 58.015625 48.699219 58.398438 48.035156 58.75 C 47.375 59.101562 46.699219 59.417969 46.007812 59.703125 C 45.316406 59.988281 44.613281 60.238281 43.898438 60.457031 C 43.179688 60.671875 42.457031 60.851562 41.722656 60.996094 C 40.988281 61.144531 40.246094 61.253906 39.503906 61.324219 C 38.757812 61.398438 38.011719 61.433594 37.261719 61.433594 C 36.511719 61.433594 35.765625 61.398438 35.019531 61.324219 C 34.277344 61.253906 33.535156 61.144531 32.800781 60.996094 C 32.066406 60.851562 31.34375 60.671875 30.625 60.457031 C 29.910156 60.238281 29.207031 59.988281 28.515625 59.703125 C 27.824219 59.417969 27.148438 59.101562 26.488281 58.75 C 25.828125 58.398438 25.183594 58.015625 24.5625 57.601562 C 23.941406 57.1875 23.339844 56.746094 22.761719 56.273438 C 22.183594 55.800781 21.628906 55.300781 21.097656 54.773438 C 20.570312 54.246094 20.066406 53.695312 19.59375 53.121094 C 19.117188 52.542969 18.671875 51.945312 18.253906 51.328125 C 17.839844 50.707031 17.457031 50.070312 17.101562 49.410156 C 16.75 48.753906 16.429688 48.082031 16.144531 47.394531 C 15.855469 46.707031 15.605469 46.003906 15.386719 45.292969 C 15.171875 44.578125 14.988281 43.859375 14.84375 43.128906 C 14.695312 42.398438 14.585938 41.660156 14.511719 40.917969 C 14.441406 40.179688 14.402344 39.433594 14.402344 38.691406 C 14.402344 37.945312 14.441406 37.203125 14.511719 36.460938 C 14.585938 35.71875 14.695312 34.984375 14.84375 34.253906 C 14.988281 33.523438 15.171875 32.800781 15.386719 32.085938 C 15.605469 31.375 15.855469 30.675781 16.144531 29.984375 C 16.429688 29.296875 16.75 28.625 17.101562 27.96875 C 17.457031 27.3125 17.839844 26.671875 18.253906 26.054688 C 18.671875 25.433594 19.117188 24.835938 19.59375 24.261719 C 20.066406 23.683594 20.570312 23.132812 21.097656 22.605469 C 21.628906 22.082031 22.183594 21.582031 22.761719 21.109375 C 23.339844 20.636719 23.941406 20.191406 24.5625 19.777344 C 25.183594 19.363281 25.828125 18.980469 26.488281 18.628906 C 27.148438 18.28125 27.824219 17.960938 28.515625 17.675781 C 29.207031 17.390625 29.910156 17.140625 30.625 16.925781 C 31.34375 16.707031 32.066406 16.527344 32.800781 16.382812 C 33.535156 16.238281 34.277344 16.128906 35.019531 16.054688 C 35.765625 15.980469 36.511719 15.945312 37.261719 15.945312 C 38.011719 15.945312 38.757812 15.980469 39.503906 16.054688 C 40.246094 16.128906 40.988281 16.238281 41.722656 16.382812 C 42.457031 16.527344 43.179688 16.707031 43.898438 16.925781 C 44.613281 17.140625 45.316406 17.390625 46.007812 17.675781 C 46.699219 17.960938 47.375 18.28125 48.035156 18.628906 C 48.699219 18.980469 49.339844 19.363281 49.960938 19.777344 C 50.582031 20.191406 51.183594 20.636719 51.761719 21.109375 C 52.339844 21.582031 52.894531 22.082031 53.425781 22.605469 C 53.953125 23.132812 54.457031 23.683594 54.929688 24.261719 C 55.40625 24.835938 55.851562 25.433594 56.269531 26.054688 C 56.683594 26.671875 57.066406 27.3125 57.421875 27.96875 C 57.773438 28.625 58.09375 29.296875 58.378906 29.984375 C 58.667969 30.675781 58.917969 31.375 59.136719 32.085938 C 59.351562 32.800781 59.535156 33.523438 59.679688 34.253906 C 59.828125 34.984375 59.9375 35.71875 60.011719 36.460938 C 60.082031 37.203125 60.121094 37.945312 60.121094 38.691406 Z M 60.121094 38.691406 " fill-opacity="1" fill-rule="nonzero"/><path fill="#ff0000" d="M 53 38.691406 C 53 39.203125 52.976562 39.714844 52.925781 40.226562 C 52.875 40.734375 52.796875 41.242188 52.699219 41.746094 C 52.597656 42.25 52.472656 42.746094 52.324219 43.234375 C 52.171875 43.726562 52 44.210938 51.800781 44.683594 C 51.605469 45.15625 51.386719 45.621094 51.140625 46.074219 C 50.898438 46.523438 50.632812 46.964844 50.347656 47.390625 C 50.0625 47.816406 49.753906 48.226562 49.429688 48.625 C 49.101562 49.019531 48.753906 49.402344 48.390625 49.761719 C 48.027344 50.125 47.644531 50.46875 47.246094 50.796875 C 46.847656 51.121094 46.433594 51.425781 46.003906 51.710938 C 45.578125 51.996094 45.136719 52.257812 44.679688 52.5 C 44.226562 52.742188 43.761719 52.960938 43.285156 53.160156 C 42.808594 53.355469 42.324219 53.527344 41.832031 53.675781 C 41.335938 53.824219 40.835938 53.949219 40.332031 54.050781 C 39.828125 54.148438 39.316406 54.226562 38.804688 54.273438 C 38.292969 54.324219 37.777344 54.351562 37.261719 54.351562 C 36.746094 54.351562 36.230469 54.324219 35.71875 54.273438 C 35.207031 54.226562 34.695312 54.148438 34.191406 54.050781 C 33.6875 53.949219 33.1875 53.824219 32.691406 53.675781 C 32.199219 53.527344 31.714844 53.355469 31.238281 53.160156 C 30.761719 52.960938 30.296875 52.742188 29.84375 52.5 C 29.386719 52.257812 28.945312 51.996094 28.519531 51.710938 C 28.089844 51.425781 27.675781 51.121094 27.277344 50.796875 C 26.878906 50.46875 26.496094 50.125 26.132812 49.761719 C 25.769531 49.402344 25.421875 49.019531 25.097656 48.625 C 24.769531 48.226562 24.460938 47.816406 24.175781 47.390625 C 23.890625 46.964844 23.625 46.523438 23.382812 46.074219 C 23.140625 45.621094 22.917969 45.15625 22.722656 44.683594 C 22.523438 44.210938 22.351562 43.726562 22.199219 43.234375 C 22.050781 42.746094 21.925781 42.25 21.824219 41.746094 C 21.726562 41.242188 21.648438 40.734375 21.597656 40.226562 C 21.546875 39.714844 21.523438 39.203125 21.523438 38.691406 C 21.523438 38.175781 21.546875 37.664062 21.597656 37.15625 C 21.648438 36.644531 21.726562 36.136719 21.824219 35.636719 C 21.925781 35.132812 22.050781 34.636719 22.199219 34.144531 C 22.351562 33.652344 22.523438 33.171875 22.722656 32.695312 C 22.917969 32.222656 23.140625 31.761719 23.382812 31.308594 C 23.625 30.855469 23.890625 30.417969 24.175781 29.988281 C 24.460938 29.5625 24.769531 29.152344 25.097656 28.753906 C 25.421875 28.359375 25.769531 27.980469 26.132812 27.617188 C 26.496094 27.253906 26.878906 26.910156 27.277344 26.585938 C 27.675781 26.257812 28.089844 25.953125 28.519531 25.667969 C 28.945312 25.382812 29.386719 25.121094 29.84375 24.878906 C 30.296875 24.636719 30.761719 24.417969 31.238281 24.222656 C 31.714844 24.027344 32.199219 23.851562 32.691406 23.703125 C 33.1875 23.554688 33.6875 23.429688 34.191406 23.332031 C 34.695312 23.230469 35.207031 23.15625 35.71875 23.105469 C 36.230469 23.054688 36.746094 23.03125 37.261719 23.03125 C 37.777344 23.03125 38.292969 23.054688 38.804688 23.105469 C 39.316406 23.15625 39.828125 23.230469 40.332031 23.332031 C 40.835938 23.429688 41.335938 23.554688 41.832031 23.703125 C 42.324219 23.851562 42.808594 24.027344 43.285156 24.222656 C 43.761719 24.417969 44.226562 24.636719 44.679688 24.878906 C 45.136719 25.121094 45.578125 25.382812 46.003906 25.667969 C 46.433594 25.953125 46.847656 26.257812 47.246094 26.585938 C 47.644531 26.910156 48.027344 27.253906 48.390625 27.617188 C 48.753906 27.980469 49.101562 28.359375 49.429688 28.753906 C 49.753906 29.152344 50.0625 29.5625 50.347656 29.988281 C 50.632812 30.417969 50.898438 30.855469 51.140625 31.308594 C 51.386719 31.761719 51.605469 32.222656 51.800781 32.695312 C 52 33.171875 52.171875 33.652344 52.324219 34.144531 C 52.472656 34.636719 52.597656 35.132812 52.699219 35.636719 C 52.796875 36.136719 52.875 36.644531 52.925781 37.15625 C 52.976562 37.664062 53 38.175781 53 38.691406 Z M 53 38.691406 " fill-opacity="1" fill-rule="nonzero"/><path fill="#ffffff" d="M 45.507812 38.691406 C 45.503906 39.230469 45.453125 39.761719 45.347656 40.289062 C 45.242188 40.820312 45.085938 41.332031 44.878906 41.828125 C 44.671875 42.328125 44.417969 42.800781 44.117188 43.246094 C 43.816406 43.695312 43.472656 44.109375 43.089844 44.492188 C 42.707031 44.871094 42.292969 45.210938 41.84375 45.511719 C 41.390625 45.808594 40.917969 46.0625 40.417969 46.269531 C 39.917969 46.476562 39.402344 46.628906 38.871094 46.734375 C 38.339844 46.839844 37.804688 46.894531 37.261719 46.894531 C 36.71875 46.894531 36.183594 46.839844 35.652344 46.734375 C 35.121094 46.628906 34.605469 46.476562 34.105469 46.269531 C 33.605469 46.0625 33.132812 45.808594 32.679688 45.511719 C 32.230469 45.210938 31.816406 44.871094 31.433594 44.492188 C 31.050781 44.109375 30.707031 43.695312 30.40625 43.246094 C 30.105469 42.800781 29.851562 42.328125 29.644531 41.828125 C 29.4375 41.332031 29.28125 40.820312 29.175781 40.289062 C 29.070312 39.761719 29.019531 39.230469 29.019531 38.691406 C 29.019531 38.152344 29.070312 37.617188 29.175781 37.089844 C 29.28125 36.5625 29.4375 36.046875 29.644531 35.550781 C 29.851562 35.054688 30.105469 34.582031 30.40625 34.132812 C 30.707031 33.683594 31.050781 33.269531 31.433594 32.890625 C 31.816406 32.507812 32.230469 32.167969 32.679688 31.871094 C 33.132812 31.570312 33.605469 31.316406 34.105469 31.109375 C 34.605469 30.90625 35.121094 30.75 35.652344 30.644531 C 36.183594 30.539062 36.71875 30.488281 37.261719 30.488281 C 37.804688 30.488281 38.339844 30.539062 38.871094 30.644531 C 39.402344 30.75 39.917969 30.90625 40.417969 31.109375 C 40.917969 31.316406 41.390625 31.570312 41.84375 31.871094 C 42.292969 32.167969 42.707031 32.507812 43.089844 32.890625 C 43.472656 33.269531 43.816406 33.683594 44.117188 34.132812 C 44.417969 34.582031 44.671875 35.054688 44.878906 35.550781 C 45.085938 36.046875 45.242188 36.5625 45.347656 37.089844 C 45.453125 37.617188 45.503906 38.152344 45.507812 38.691406 Z M 45.507812 38.691406 " fill-opacity="1" fill-rule="nonzero"/><path fill="#1a1a1a" d="M 40.257812 38.691406 C 40.257812 39.085938 40.183594 39.464844 40.03125 39.832031 C 39.878906 40.195312 39.664062 40.519531 39.382812 40.800781 C 39.101562 41.078125 38.777344 41.292969 38.410156 41.445312 C 38.042969 41.597656 37.660156 41.671875 37.261719 41.671875 C 36.863281 41.671875 36.480469 41.597656 36.113281 41.445312 C 35.746094 41.292969 35.421875 41.078125 35.140625 40.800781 C 34.859375 40.519531 34.644531 40.195312 34.492188 39.832031 C 34.339844 39.464844 34.265625 39.085938 34.265625 38.691406 C 34.265625 38.292969 34.339844 37.914062 34.492188 37.546875 C 34.644531 37.183594 34.859375 36.859375 35.140625 36.582031 C 35.421875 36.300781 35.746094 36.085938 36.113281 35.933594 C 36.480469 35.78125 36.863281 35.707031 37.261719 35.707031 C 37.660156 35.707031 38.042969 35.78125 38.410156 35.933594 C 38.777344 36.085938 39.101562 36.300781 39.382812 36.582031 C 39.664062 36.859375 39.878906 37.183594 40.03125 37.546875 C 40.183594 37.914062 40.257812 38.292969 40.257812 38.691406 Z M 40.257812 38.691406 " fill-opacity="1" fill-rule="nonzero"/><path fill="#ffffff" d="M 61.660156 15.800781 L 63.074219 17.121094 L 39.5625 39.046875 L 38.148438 37.730469 Z M 61.660156 15.800781 " fill-opacity="1" fill-rule="nonzero"/><g clip-path="url(#6078a9714d)"><path fill="#ff0000" d="M 65.808594 11.820312 L 70.550781 11.996094 L 64.953125 17.253906 L 60.210938 17.074219 Z M 65.808594 11.820312 " fill-opacity="1" fill-rule="nonzero"/></g><g clip-path="url(#2e36bd3d2d)"><path fill="#ff0000" d="M 65.902344 11.910156 L 65.710938 7.457031 L 60.113281 12.710938 L 60.304688 17.164062 Z M 65.902344 11.910156 " fill-opacity="1" fill-rule="nonzero"/></g><path fill="#1a1a1a" d="M 65.839844 10.351562 L 67.597656 12.007812 L 38.328125 39.566406 L 36.566406 37.910156 Z M 65.839844 10.351562 " fill-opacity="1" fill-rule="nonzero"/></svg>