<svg xmlns="http://www.w3.org/2000/svg" xmlns:xlink="http://www.w3.org/1999/xlink" width="103" zoomAndPan="magnify" viewBox="0 0 77.25 77.25" height="103" preserveAspectRatio="xMidYMid meet" version="1.0"><defs><clipPath id="c01bb21189"><path d="M 0 0 L 76.152344 0 L 76.152344 76.152344 L 0 76.152344 Z M 0 0 " clip-rule="nonzero"/></clipPath><clipPath id="1ed6d1761e"><path d="M 38.078125 0 C 17.046875 0 0 17.046875 0 38.078125 C 0 59.105469 17.046875 76.152344 38.078125 76.152344 C 59.105469 76.152344 76.152344 59.105469 76.152344 38.078125 C 76.152344 17.046875 59.105469 0 38.078125 0 Z M 38.078125 0 " clip-rule="nonzero"/></clipPath><clipPath id="370937dba7"><path d="M 0 0 L 76.152344 0 L 76.152344 76.152344 L 0 76.152344 Z M 0 0 " clip-rule="nonzero"/></clipPath><clipPath id="7d81af2166"><path d="M 38.078125 0 C 17.046875 0 0 17.046875 0 38.078125 C 0 59.105469 17.046875 76.152344 38.078125 76.152344 C 59.105469 76.152344 76.152344 59.105469 76.152344 38.078125 C 76.152344 17.046875 59.105469 0 38.078125 0 Z M 38.078125 0 " clip-rule="nonzero"/></clipPath><clipPath id="7ec938f742"><rect x="0" width="77" y="0" height="77"/></clipPath><clipPath id="5f04e528b9"><path d="M 5.726562 14.472656 L 43 14.472656 L 43 65 L 5.726562 65 Z M 5.726562 14.472656 " clip-rule="nonzero"/></clipPath><clipPath id="9ccc59199e"><path d="M 33 14.472656 L 70.351562 14.472656 L 70.351562 67.953125 L 33 67.953125 Z M 33 14.472656 " clip-rule="nonzero"/></clipPath></defs><g clip-path="url(#c01bb21189)"><g clip-path="url(#1ed6d1761e)"><g transform="matrix(1, 0, 0, 1, 0, -0.000000000000002558)"><g clip-path="url(#7ec938f742)"><g clip-path="url(#370937dba7)"><g clip-path="url(#7d81af2166)"><path fill="#ffc994" d="M 0 0 L 76.152344 0 L 76.152344 76.152344 L 0 76.152344 Z M 0 0 " fill-opacity="1" fill-rule="nonzero"/></g></g></g></g></g></g><g clip-path="url(#5f04e528b9)"><path fill="#ff0000" d="M 41.476562 55.765625 L 35.5625 49.929688 C 35.417969 49.785156 35.335938 49.589844 35.339844 49.386719 C 35.34375 49.179688 35.433594 48.984375 35.585938 48.847656 L 42.992188 42.160156 L 33.242188 36.117188 C 32.949219 35.933594 32.820312 35.578125 32.929688 35.25 L 37.253906 22.328125 C 34.070312 17.4375 28.722656 14.523438 22.875 14.523438 C 13.417969 14.523438 5.722656 22.21875 5.722656 31.675781 C 5.722656 34.273438 6.289062 36.765625 7.402344 39.089844 C 7.480469 39.265625 13.257812 52.484375 31.929688 64.257812 Z M 41.476562 55.765625 " fill-opacity="1" fill-rule="nonzero"/></g><g clip-path="url(#9ccc59199e)"><path fill="#ff0000" d="M 53.273438 14.523438 C 47.335938 14.523438 41.914062 17.523438 38.75 22.546875 L 34.527344 35.164062 L 44.617188 41.414062 C 44.816406 41.539062 44.945312 41.75 44.964844 41.980469 C 44.988281 42.214844 44.898438 42.445312 44.722656 42.601562 L 37.167969 49.425781 L 43.085938 55.261719 C 43.378906 55.546875 43.378906 56.019531 43.09375 56.3125 L 33.253906 65.074219 C 34.777344 66 36.382812 66.914062 38.074219 67.8125 C 61.648438 55.328125 68.660156 39.28125 68.730469 39.121094 C 69.859375 36.765625 70.421875 34.273438 70.421875 31.675781 C 70.421875 22.21875 62.730469 14.523438 53.273438 14.523438 Z M 53.273438 14.523438 " fill-opacity="1" fill-rule="nonzero"/></g></svg>