<svg xmlns="http://www.w3.org/2000/svg" xmlns:xlink="http://www.w3.org/1999/xlink" width="103" zoomAndPan="magnify" viewBox="0 0 77.25 77.25" height="103" preserveAspectRatio="xMidYMid meet" version="1.0"><defs><clipPath id="e76fb41aba"><path d="M 0 0 L 76.152344 0 L 76.152344 76.152344 L 0 76.152344 Z M 0 0 " clip-rule="nonzero"/></clipPath><clipPath id="c4cb9c3df6"><path d="M 38.078125 0 C 17.046875 0 0 17.046875 0 38.078125 C 0 59.105469 17.046875 76.152344 38.078125 76.152344 C 59.105469 76.152344 76.152344 59.105469 76.152344 38.078125 C 76.152344 17.046875 59.105469 0 38.078125 0 Z M 38.078125 0 " clip-rule="nonzero"/></clipPath><clipPath id="a6c35582e7"><path d="M 0 0 L 76.152344 0 L 76.152344 76.152344 L 0 76.152344 Z M 0 0 " clip-rule="nonzero"/></clipPath><clipPath id="1b157a673b"><path d="M 38.078125 0 C 17.046875 0 0 17.046875 0 38.078125 C 0 59.105469 17.046875 76.152344 38.078125 76.152344 C 59.105469 76.152344 76.152344 59.105469 76.152344 38.078125 C 76.152344 17.046875 59.105469 0 38.078125 0 Z M 38.078125 0 " clip-rule="nonzero"/></clipPath><clipPath id="7d40dd6a0b"><rect x="0" width="77" y="0" height="77"/></clipPath><clipPath id="61d9357e98"><path d="M 19 42 L 58 42 L 58 71.414062 L 19 71.414062 Z M 19 42 " clip-rule="nonzero"/></clipPath><clipPath id="eee028f5fb"><path d="M 18 42 L 58.378906 42 L 58.378906 56 L 18 56 Z M 18 42 " clip-rule="nonzero"/></clipPath><clipPath id="a22934d9a9"><path d="M 18 39 L 58.378906 39 L 58.378906 50 L 18 50 Z M 18 39 " clip-rule="nonzero"/></clipPath><clipPath id="5800eecba0"><path d="M 28 8.277344 L 40 8.277344 L 40 49 L 28 49 Z M 28 8.277344 " clip-rule="nonzero"/></clipPath><clipPath id="42010e379d"><path d="M 17.527344 30 L 34 30 L 34 49 L 17.527344 49 Z M 17.527344 30 " clip-rule="nonzero"/></clipPath></defs><g clip-path="url(#e76fb41aba)"><g clip-path="url(#c4cb9c3df6)"><g transform="matrix(1, 0, 0, 1, 0, -0.000000000000002558)"><g clip-path="url(#7d40dd6a0b)"><g clip-path="url(#a6c35582e7)"><g clip-path="url(#1b157a673b)"><path fill="#ffc994" d="M 0 0 L 76.152344 0 L 76.152344 76.152344 L 0 76.152344 Z M 0 0 " fill-opacity="1" fill-rule="nonzero"/></g></g></g></g></g></g><g clip-path="url(#61d9357e98)"><path fill="#073e14" d="M 22.746094 46.066406 L 26.640625 66.125 C 28.273438 66.855469 29.863281 67.410156 31.585938 67.800781 C 33.570312 68.246094 35.773438 68.488281 38.484375 68.539062 C 41.195312 68.488281 43.398438 68.246094 45.382812 67.800781 C 47.109375 67.410156 48.695312 66.855469 50.332031 66.125 L 54.222656 46.066406 C 48.714844 45.792969 43.617188 45.652344 38.484375 45.652344 C 33.351562 45.652344 28.257812 45.792969 22.746094 46.066406 Z M 24 67.394531 L 19.652344 45.003906 L 19.65625 45.003906 C 19.644531 44.9375 19.632812 44.871094 19.632812 44.800781 C 19.589844 44.015625 20.191406 43.34375 20.972656 43.304688 C 27.253906 42.964844 32.894531 42.792969 38.484375 42.792969 C 44.074219 42.792969 49.664062 42.960938 55.917969 43.300781 C 56.007812 43.300781 56.101562 43.308594 56.195312 43.328125 C 56.964844 43.476562 57.464844 44.226562 57.316406 45.003906 L 52.980469 67.347656 C 52.90625 67.800781 52.621094 68.210938 52.175781 68.417969 C 50.15625 69.371094 48.199219 70.082031 45.992188 70.582031 C 43.816406 71.066406 41.425781 71.332031 38.507812 71.386719 L 38.460938 71.386719 C 35.542969 71.332031 33.152344 71.066406 30.976562 70.582031 C 28.769531 70.082031 26.8125 69.371094 24.789062 68.417969 C 24.394531 68.230469 24.089844 67.863281 24 67.394531 Z M 24 67.394531 " fill-opacity="1" fill-rule="nonzero"/></g><path fill="#b26634" d="M 21.042969 44.730469 C 22.492188 52.191406 23.941406 59.65625 25.390625 67.121094 C 29.285156 68.953125 32.84375 69.855469 38.484375 69.960938 C 44.125 69.855469 47.683594 68.953125 51.578125 67.121094 C 53.027344 59.65625 54.476562 52.191406 55.925781 44.730469 C 43.496094 44.054688 33.472656 44.054688 21.042969 44.730469 Z M 21.042969 44.730469 " fill-opacity="1" fill-rule="evenodd"/><path fill="#d68956" d="M 48.945312 68.226562 C 49.828125 67.90625 50.695312 67.539062 51.578125 67.121094 C 53.027344 59.65625 54.476562 52.191406 55.925781 44.730469 C 54.511719 44.652344 53.128906 44.582031 51.769531 44.523438 C 52.035156 51.960938 50.910156 60.066406 48.949219 68.226562 Z M 48.945312 68.226562 " fill-opacity="1" fill-rule="evenodd"/><path fill="#944c1c" d="M 22.425781 46.175781 C 23.71875 52.839844 25.011719 59.503906 26.304688 66.167969 C 29.132812 67.496094 31.761719 68.277344 35.351562 68.574219 C 37.03125 68.710938 36.464844 68.066406 35.738281 66.636719 C 31.4375 58.21875 34.09375 50.289062 37.515625 46.09375 C 33.515625 46.144531 26.835938 45.9375 22.425781 46.175781 Z M 22.425781 46.175781 " fill-opacity="1" fill-rule="evenodd"/><g clip-path="url(#eee028f5fb)"><path fill="#073e14" d="M 21.882812 45.972656 L 22.828125 50.847656 C 24.804688 51.421875 27.074219 51.890625 29.539062 52.21875 C 32.277344 52.585938 35.296875 52.789062 38.484375 52.789062 C 41.671875 52.789062 44.691406 52.585938 47.429688 52.21875 C 49.898438 51.890625 52.164062 51.421875 54.144531 50.847656 L 55.089844 45.972656 C 49.273438 45.679688 43.898438 45.535156 38.484375 45.535156 C 33.070312 45.535156 27.695312 45.679688 21.882812 45.972656 Z M 20.066406 52.316406 L 18.617188 44.847656 L 18.621094 44.847656 C 18.605469 44.777344 18.597656 44.707031 18.59375 44.636719 C 18.550781 43.804688 19.183594 43.097656 20.007812 43.058594 C 26.632812 42.695312 32.582031 42.519531 38.484375 42.519531 C 44.386719 42.519531 50.289062 42.695312 56.882812 43.054688 C 56.976562 43.054688 57.074219 43.0625 57.171875 43.082031 C 57.980469 43.238281 58.507812 44.03125 58.351562 44.847656 L 56.910156 52.265625 C 56.824219 52.8125 56.441406 53.289062 55.882812 53.464844 C 53.585938 54.203125 50.847656 54.796875 47.8125 55.203125 C 44.90625 55.589844 41.757812 55.804688 38.484375 55.804688 C 35.210938 55.804688 32.058594 55.589844 29.152344 55.203125 C 26.117188 54.796875 23.382812 54.203125 21.082031 53.464844 C 20.578125 53.304688 20.175781 52.878906 20.066406 52.316406 Z M 20.066406 52.316406 " fill-opacity="1" fill-rule="nonzero"/></g><path fill="#d1985e" d="M 20.085938 44.558594 L 21.535156 52.027344 C 25.921875 53.433594 31.898438 54.296875 38.484375 54.296875 C 45.074219 54.296875 51.046875 53.433594 55.4375 52.027344 L 56.882812 44.558594 C 43.773438 43.847656 33.195312 43.847656 20.085938 44.558594 Z M 20.085938 44.558594 " fill-opacity="1" fill-rule="evenodd"/><path fill="#fac999" d="M 51.519531 53.046875 C 52.929688 52.753906 54.242188 52.410156 55.4375 52.027344 C 55.917969 49.539062 56.402344 47.046875 56.886719 44.558594 C 52.53125 44.324219 39.21875 45.371094 37.136719 49.21875 C 40.960938 49.820312 47.089844 50.1875 51.75 49.488281 C 51.703125 50.664062 51.625 51.851562 51.519531 53.046875 Z M 51.519531 53.046875 " fill-opacity="1" fill-rule="evenodd"/><path fill="#ba7734" d="M 23.679688 52.640625 C 26.613281 53.382812 30.074219 53.910156 33.839844 54.148438 C 34.105469 52.671875 34.488281 51.289062 35.101562 50.09375 C 29.238281 49.824219 25.832031 49.304688 22.960938 48.554688 Z M 23.679688 52.640625 " fill-opacity="1" fill-rule="evenodd"/><g clip-path="url(#a22934d9a9)"><path fill="#073e14" d="M 38.484375 39.828125 C 43.644531 39.828125 48.332031 40.195312 51.746094 40.792969 C 55.84375 41.511719 58.378906 42.824219 58.378906 44.558594 C 58.378906 46.292969 55.84375 47.605469 51.746094 48.324219 C 48.332031 48.921875 43.644531 49.289062 38.484375 49.289062 C 33.324219 49.289062 28.632812 48.921875 25.222656 48.324219 C 21.125 47.605469 18.589844 46.292969 18.589844 44.558594 C 18.589844 42.824219 21.125 41.511719 25.222656 40.792969 C 28.632812 40.195312 33.324219 39.828125 38.484375 39.828125 Z M 51.246094 43.765625 C 47.996094 43.195312 43.488281 42.84375 38.484375 42.84375 C 33.480469 42.84375 28.972656 43.195312 25.722656 43.765625 C 23.164062 44.214844 21.578125 44.511719 21.578125 44.558594 C 21.578125 44.605469 23.164062 44.90625 25.722656 45.355469 C 28.96875 45.921875 33.480469 46.273438 38.484375 46.273438 C 43.488281 46.273438 47.996094 45.921875 51.246094 45.355469 C 53.804688 44.90625 55.390625 44.605469 55.390625 44.558594 C 55.390625 44.511719 53.804688 44.214844 51.246094 43.765625 Z M 51.246094 43.765625 " fill-opacity="1" fill-rule="nonzero"/></g><path fill="#ba7734" d="M 38.484375 41.335938 C 48.648438 41.335938 56.882812 42.777344 56.882812 44.558594 C 56.882812 46.339844 48.648438 47.78125 38.484375 47.78125 C 28.320312 47.78125 20.082031 46.339844 20.082031 44.558594 C 20.082031 42.777344 28.320312 41.335938 38.484375 41.335938 Z M 38.484375 41.335938 " fill-opacity="1" fill-rule="evenodd"/><path fill="#073e14" d="M 54.917969 46.296875 C 51.453125 47.242188 45.386719 47.871094 38.484375 47.871094 C 31.582031 47.871094 25.515625 47.242188 22.050781 46.296875 C 25.515625 45.347656 31.582031 44.71875 38.484375 44.71875 C 45.386719 44.71875 51.453125 45.347656 54.917969 46.296875 Z M 54.917969 46.296875 " fill-opacity="1" fill-rule="evenodd"/><g clip-path="url(#5800eecba0)"><path fill="#073e14" d="M 35.058594 14.234375 C 33.519531 16.332031 32.59375 18.425781 32.0625 20.621094 C 31.214844 24.097656 31.308594 27.945312 31.488281 32.511719 C 31.636719 36.144531 31.96875 39.761719 32.28125 43.144531 C 32.371094 44.148438 32.464844 45.136719 32.535156 45.9375 C 33.097656 45.972656 33.65625 46 34.203125 46.023438 C 34.808594 46.050781 35.417969 46.070312 36.027344 46.085938 C 36.386719 44.105469 36.65625 41.917969 36.816406 39.585938 C 37.011719 36.8125 37.054688 33.851562 36.941406 30.820312 C 36.839844 28.230469 36.398438 25.933594 35.96875 23.691406 C 35.390625 20.671875 34.832031 17.753906 35.058594 14.234375 Z M 29.3125 19.941406 C 30.265625 16.023438 32.253906 12.429688 36.214844 8.703125 C 36.554688 8.371094 37.046875 8.222656 37.535156 8.34375 C 38.292969 8.53125 38.757812 9.304688 38.570312 10.070312 C 37.257812 15.375 37.988281 19.171875 38.75 23.152344 C 39.195312 25.484375 39.65625 27.871094 39.761719 30.71875 C 39.882812 33.875 39.839844 36.933594 39.640625 39.773438 C 39.4375 42.707031 39.074219 45.429688 38.570312 47.828125 L 38.566406 47.828125 C 38.429688 48.476562 37.855469 48.964844 37.167969 48.957031 C 36.09375 48.941406 35.0625 48.914062 34.089844 48.871094 C 33.027344 48.828125 32.054688 48.773438 31.175781 48.707031 C 30.46875 48.679688 29.878906 48.125 29.816406 47.394531 C 29.671875 45.621094 29.570312 44.535156 29.46875 43.402344 C 29.152344 39.96875 28.8125 36.296875 28.664062 32.625 C 28.472656 27.832031 28.378906 23.78125 29.3125 19.941406 Z M 29.3125 19.941406 " fill-opacity="1" fill-rule="nonzero"/></g><path fill="#44c26c" d="M 37.199219 9.726562 C 29.703125 16.773438 29.699219 23.207031 30.078125 32.570312 C 30.285156 37.695312 30.863281 42.808594 31.230469 47.277344 C 33.078125 47.417969 35.082031 47.503906 37.1875 47.53125 C 38.15625 42.910156 38.59375 37.019531 38.351562 30.769531 C 38.054688 23.136719 35.042969 18.4375 37.199219 9.726562 Z M 37.199219 9.726562 " fill-opacity="1" fill-rule="evenodd"/><path fill="#289e55" d="M 30.359375 37.292969 C 30.621094 40.789062 30.976562 44.1875 31.230469 47.277344 C 33.078125 47.417969 35.082031 47.503906 37.1875 47.53125 C 37.765625 44.765625 38.15625 41.542969 38.324219 38.058594 C 36.425781 46.011719 33.808594 46.175781 30.359375 37.292969 Z M 30.359375 37.292969 " fill-opacity="1" fill-rule="evenodd"/><path fill="#8ef290" d="M 37.199219 9.726562 C 29.703125 16.773438 29.699219 23.207031 30.078125 32.570312 C 30.109375 33.375 30.152344 34.179688 30.199219 34.980469 C 30.320312 25.097656 32.785156 16.015625 37.199219 9.726562 Z M 37.199219 9.726562 " fill-opacity="1" fill-rule="evenodd"/><path fill="#289e55" d="M 30.371094 37.445312 C 30.441406 38.394531 30.519531 39.335938 30.601562 40.261719 C 32.882812 40.933594 35.375 41.332031 38.082031 41.46875 C 38.175781 40.484375 38.25 39.476562 38.304688 38.441406 C 35.460938 38.628906 32.867188 38.167969 30.367188 37.445312 Z M 30.371094 37.445312 " fill-opacity="1" fill-rule="evenodd"/><path fill="#289e55" d="M 29.96875 29.128906 C 29.984375 29.972656 30.011719 30.839844 30.042969 31.734375 C 33.085938 32.53125 35.859375 32.003906 38.3125 30.03125 C 38.242188 28.898438 38.117188 27.832031 37.960938 26.800781 C 35.355469 28.203125 32.675781 28.824219 29.96875 29.128906 Z M 29.96875 29.128906 " fill-opacity="1" fill-rule="evenodd"/><path fill="#289e55" d="M 31.550781 17.585938 C 31.210938 18.425781 30.9375 19.28125 30.71875 20.148438 C 32.390625 21.597656 34.492188 22.074219 37.019531 21.601562 C 36.839844 20.609375 36.683594 19.609375 36.574219 18.578125 C 34.800781 18.949219 33.140625 18.566406 31.550781 17.585938 Z M 31.550781 17.585938 " fill-opacity="1" fill-rule="evenodd"/><path fill="#44c26c" d="M 31.425781 17.902344 L 31.421875 17.914062 L 31.414062 17.941406 L 31.3125 18.210938 L 31.308594 18.21875 L 31.296875 18.25 L 31.292969 18.257812 L 31.28125 18.296875 L 31.210938 18.496094 L 31.195312 18.539062 L 31.183594 18.578125 L 31.179688 18.585938 L 31.167969 18.617188 L 31.15625 18.65625 L 31.140625 18.695312 L 31.128906 18.738281 L 31.117188 18.777344 L 31.101562 18.816406 L 31.089844 18.855469 L 31.050781 18.976562 L 31.039062 19.015625 L 31.027344 19.058594 L 31.011719 19.097656 L 31 19.136719 L 30.988281 19.179688 L 30.976562 19.21875 L 30.941406 19.339844 L 30.929688 19.378906 L 30.917969 19.421875 L 30.894531 19.5 L 30.882812 19.542969 L 30.847656 19.664062 L 30.835938 19.703125 L 30.824219 19.746094 L 30.8125 19.785156 L 30.804688 19.824219 L 30.792969 19.867188 L 30.75 20.027344 L 30.738281 20.070312 L 30.730469 20.109375 L 30.71875 20.152344 C 31.140625 20.519531 31.59375 20.824219 32.074219 21.066406 C 32.332031 20.113281 32.621094 19.183594 32.933594 18.277344 C 32.464844 18.101562 32.003906 17.867188 31.550781 17.589844 Z M 31.425781 17.902344 " fill-opacity="1" fill-rule="evenodd"/><path fill="#073e14" d="M 47.820312 10.820312 C 49.015625 13.300781 49.660156 15.777344 49.917969 18.195312 C 50.171875 20.621094 50.039062 22.980469 49.671875 25.210938 C 49.457031 26.535156 48.835938 27.472656 48.160156 28.5 C 47.589844 29.367188 46.964844 30.3125 46.667969 31.554688 C 46.285156 33.140625 46.539062 34.589844 46.792969 36.035156 C 47.03125 37.414062 47.273438 38.792969 47.089844 40.429688 C 46.929688 41.847656 46.640625 43.164062 46.269531 44.417969 C 45.898438 45.664062 45.449219 46.835938 44.964844 47.972656 C 44.730469 48.519531 44.203125 48.84375 43.648438 48.839844 C 42.867188 48.878906 42.027344 48.910156 41.136719 48.929688 C 40.128906 48.957031 39.242188 48.96875 38.484375 48.96875 L 38.484375 48.964844 L 37.90625 48.960938 L 37.894531 48.960938 L 37.324219 48.957031 C 36.542969 48.953125 35.917969 48.308594 35.921875 47.523438 C 35.925781 47.292969 35.980469 47.078125 36.074219 46.886719 L 36.070312 46.886719 C 37.324219 44.402344 37.171875 42.371094 36.988281 39.878906 C 36.847656 38 36.691406 35.890625 37.003906 33.152344 L 37.015625 33.066406 C 37.222656 31.863281 37.339844 30.699219 37.457031 29.558594 C 37.8125 26.042969 38.148438 22.703125 40.539062 19.707031 C 41.390625 18.636719 42.101562 17.925781 42.703125 17.324219 C 44.03125 15.996094 44.710938 15.316406 45.109375 11.234375 C 45.1875 10.449219 45.878906 9.875 46.65625 9.953125 C 47.191406 10.007812 47.625 10.355469 47.820312 10.820312 Z M 47.105469 18.496094 C 47.039062 17.878906 46.945312 17.253906 46.816406 16.628906 C 46.296875 17.746094 45.609375 18.433594 44.699219 19.347656 C 44.148438 19.894531 43.5 20.542969 42.742188 21.492188 C 40.875 23.835938 40.582031 26.757812 40.269531 29.839844 C 40.148438 31.058594 40.023438 32.296875 39.8125 33.515625 C 39.539062 35.964844 39.683594 37.925781 39.8125 39.667969 C 39.980469 41.929688 40.125 43.871094 39.441406 46.105469 C 40.054688 46.101562 40.597656 46.09375 41.070312 46.082031 C 41.605469 46.070312 42.152344 46.050781 42.703125 46.027344 C 43.019531 45.234375 43.3125 44.425781 43.558594 43.601562 C 43.886719 42.492188 44.140625 41.339844 44.277344 40.117188 C 44.414062 38.890625 44.207031 37.710938 44 36.527344 C 43.699219 34.796875 43.394531 33.066406 43.921875 30.882812 C 44.339844 29.144531 45.105469 27.984375 45.800781 26.925781 C 46.308594 26.160156 46.765625 25.460938 46.882812 24.753906 C 47.210938 22.753906 47.332031 20.648438 47.105469 18.496094 Z M 37.015625 33.070312 L 37.015625 33.066406 C 37.015625 33.066406 37.015625 33.070312 37.015625 33.070312 Z M 37.015625 33.070312 " fill-opacity="1" fill-rule="nonzero"/><path fill="#44c26c" d="M 46.519531 11.371094 C 48.792969 16.050781 48.972656 20.753906 48.277344 24.980469 C 47.933594 27.089844 45.984375 28.339844 45.292969 31.21875 C 44.472656 34.625 46.042969 37.070312 45.683594 40.273438 C 45.386719 42.914062 44.597656 45.214844 43.664062 47.410156 C 42.019531 47.492188 40.28125 47.539062 38.484375 47.539062 C 38.097656 47.539062 37.714844 47.535156 37.335938 47.53125 C 39.722656 42.792969 37.667969 39.808594 38.414062 33.3125 C 39.203125 28.707031 38.746094 24.230469 41.640625 20.597656 C 44.636719 16.839844 45.902344 17.65625 46.519531 11.371094 Z M 46.519531 11.371094 " fill-opacity="1" fill-rule="evenodd"/><path fill="#8ef290" d="M 38.480469 40.953125 C 38.355469 38.835938 38.046875 36.496094 38.414062 33.3125 C 39.203125 28.707031 38.746094 24.230469 41.640625 20.597656 C 44.605469 16.875 45.878906 17.640625 46.5 11.542969 L 46.632812 11.617188 C 47.5625 20.507812 43.171875 19 41.121094 25.097656 C 39.816406 28.984375 39.398438 35.632812 38.480469 40.953125 Z M 38.480469 40.953125 " fill-opacity="1" fill-rule="evenodd"/><path fill="#289e55" d="M 45.402344 42.066406 C 45.09375 43.585938 44.632812 44.996094 44.09375 46.359375 C 42.007812 46.167969 40.066406 45.6875 38.285156 44.894531 C 38.59375 43.464844 38.558594 42.113281 38.460938 40.644531 C 40.710938 41.691406 43.015625 42.359375 45.402344 42.066406 Z M 45.402344 42.066406 " fill-opacity="1" fill-rule="evenodd"/><path fill="#289e55" d="M 45.070312 33.847656 C 45.191406 34.9375 45.488281 36.652344 45.628906 37.730469 C 42.695312 37.5625 40.214844 36.800781 38.261719 35.320312 C 38.359375 34.011719 38.402344 32.511719 38.695312 31.308594 C 40.648438 32.816406 42.535156 34.449219 45.070312 33.847656 Z M 45.070312 33.847656 " fill-opacity="1" fill-rule="evenodd"/><path fill="#44c26c" d="M 39.203125 35.957031 C 38.878906 35.761719 38.5625 35.550781 38.261719 35.320312 C 38.300781 34.804688 38.328125 34.253906 38.371094 33.707031 L 38.414062 33.3125 C 38.527344 32.640625 38.617188 31.972656 38.691406 31.308594 C 39.035156 31.570312 39.371094 31.835938 39.710938 32.09375 C 39.535156 33.355469 39.375 34.660156 39.207031 35.957031 Z M 39.203125 35.957031 " fill-opacity="1" fill-rule="evenodd"/><path fill="#289e55" d="M 48.570312 22.527344 C 48.511719 23.359375 48.410156 24.179688 48.277344 24.980469 C 48.246094 25.183594 48.199219 25.375 48.136719 25.5625 C 44.839844 26.421875 42.109375 25.796875 39.972656 23.625 C 40.269531 22.800781 40.65625 22.003906 41.171875 21.238281 C 43.46875 22.429688 45.886719 22.929688 48.570312 22.527344 Z M 48.570312 22.527344 " fill-opacity="1" fill-rule="evenodd"/><path fill="#44c26c" d="M 41.265625 24.703125 C 40.8125 24.398438 40.378906 24.042969 39.96875 23.625 L 40 23.546875 L 40.011719 23.507812 L 40.027344 23.472656 L 40.027344 23.46875 C 40.027344 23.46875 40.042969 23.433594 40.042969 23.433594 L 40.054688 23.394531 L 40.085938 23.316406 L 40.101562 23.28125 L 40.164062 23.125 L 40.175781 23.097656 L 40.179688 23.089844 L 40.226562 22.972656 L 40.242188 22.9375 L 40.253906 22.910156 L 40.257812 22.898438 L 40.277344 22.863281 L 40.308594 22.785156 L 40.328125 22.75 L 40.335938 22.726562 L 40.34375 22.710938 L 40.347656 22.707031 L 40.398438 22.597656 L 40.414062 22.558594 L 40.421875 22.542969 L 40.433594 22.523438 L 40.449219 22.484375 L 40.488281 22.410156 L 40.507812 22.371094 L 40.511719 22.359375 L 40.527344 22.335938 L 40.542969 22.296875 L 40.582031 22.222656 L 40.601562 22.1875 L 40.605469 22.179688 L 40.621094 22.152344 L 40.640625 22.113281 L 40.660156 22.078125 L 40.683594 22.039062 L 40.703125 22.003906 L 40.703125 22 L 40.722656 21.96875 L 40.742188 21.929688 L 40.765625 21.894531 L 40.785156 21.855469 L 40.828125 21.785156 L 40.847656 21.75 L 40.871094 21.710938 L 40.894531 21.675781 L 40.914062 21.636719 L 40.984375 21.53125 L 41.003906 21.492188 L 41.046875 21.429688 L 41.050781 21.421875 L 41.074219 21.386719 L 41.097656 21.347656 L 41.148438 21.277344 L 41.171875 21.242188 C 41.695312 21.511719 42.226562 21.75 42.765625 21.945312 C 42.21875 22.671875 41.699219 23.542969 41.265625 24.703125 Z M 41.265625 24.703125 " fill-opacity="1" fill-rule="evenodd"/><path fill="#073e14" d="M 55.65625 20.289062 C 55.621094 25.484375 54.722656 27.03125 53.714844 28.773438 C 53.480469 29.175781 53.242188 29.589844 53 30.101562 C 51.554688 33.191406 51.761719 34.429688 52.210938 37.082031 C 52.320312 37.714844 52.4375 38.417969 52.558594 39.265625 C 52.726562 40.421875 52.65625 41.710938 52.425781 43.035156 C 52.175781 44.460938 51.734375 45.945312 51.183594 47.363281 C 50.984375 47.882812 50.511719 48.21875 49.996094 48.265625 C 48.992188 48.402344 47.957031 48.519531 46.910156 48.613281 C 45.878906 48.707031 44.726562 48.785156 43.460938 48.847656 C 42.679688 48.882812 42.015625 48.273438 41.980469 47.488281 C 41.972656 47.3125 41.996094 47.140625 42.046875 46.980469 C 42.6875 45.015625 43.019531 43.429688 43.105469 41.8125 C 43.195312 40.164062 43.039062 38.4375 42.695312 36.226562 C 42.433594 34.535156 42.582031 32.730469 42.96875 31.058594 C 43.417969 29.125 44.199219 27.324219 45.039062 26.074219 C 46.660156 23.660156 48.027344 22.96875 49.476562 22.238281 C 50.566406 21.6875 51.71875 21.109375 53.136719 19.308594 C 53.621094 18.691406 54.511719 18.585938 55.125 19.078125 C 55.503906 19.378906 55.683594 19.839844 55.65625 20.292969 Z M 51.277344 27.332031 C 51.820312 26.398438 52.320312 25.535156 52.601562 23.734375 C 51.949219 24.175781 51.339844 24.484375 50.742188 24.785156 C 49.632812 25.34375 48.585938 25.875 47.378906 27.667969 C 46.722656 28.648438 46.097656 30.101562 45.726562 31.707031 C 45.414062 33.0625 45.289062 34.496094 45.488281 35.792969 C 45.859375 38.203125 46.03125 40.101562 45.933594 41.957031 C 45.863281 43.253906 45.664062 44.507812 45.320312 45.875 C 45.769531 45.84375 46.21875 45.804688 46.667969 45.765625 C 47.445312 45.695312 48.167969 45.621094 48.835938 45.539062 C 49.183594 44.539062 49.464844 43.523438 49.636719 42.542969 C 49.820312 41.492188 49.875 40.503906 49.757812 39.667969 C 49.648438 38.890625 49.527344 38.191406 49.421875 37.5625 C 48.871094 34.308594 48.613281 32.789062 50.441406 28.882812 C 50.714844 28.304688 51 27.808594 51.277344 27.332031 Z M 51.277344 27.332031 " fill-opacity="1" fill-rule="nonzero"/><path fill="#44c26c" d="M 54.246094 20.195312 C 54.214844 26.4375 52.894531 26.988281 51.722656 29.492188 C 49.734375 33.738281 50.5 34.859375 51.160156 39.464844 C 51.460938 41.582031 50.84375 44.324219 49.867188 46.84375 C 47.976562 47.105469 45.78125 47.304688 43.394531 47.421875 C 44.75 43.253906 44.808594 40.628906 44.09375 36.007812 C 43.59375 32.773438 44.820312 28.941406 46.210938 26.871094 C 48.980469 22.746094 50.960938 24.367188 54.246094 20.195312 Z M 54.246094 20.195312 " fill-opacity="1" fill-rule="evenodd"/><path fill="#289e55" d="M 50.898438 43.460938 C 50.824219 44.527344 50.289062 46.21875 49.867188 46.84375 C 47.976562 47.105469 45.78125 47.304688 43.394531 47.421875 C 43.730469 46.382812 43.988281 45.441406 44.171875 44.539062 C 45.285156 46.300781 48.394531 45.425781 50.898438 43.460938 Z M 50.898438 43.460938 " fill-opacity="1" fill-rule="evenodd"/><path fill="#8ef290" d="M 44.535156 41.515625 C 44.589844 39.875 44.425781 38.15625 44.09375 36.007812 C 43.59375 32.773438 44.820312 28.941406 46.210938 26.871094 C 48.980469 22.746094 50.960938 24.367188 54.246094 20.195312 C 52.042969 25.929688 48.488281 24.855469 46.292969 30.425781 C 44.664062 34.554688 45.929688 38.566406 44.535156 41.515625 Z M 44.535156 41.515625 " fill-opacity="1" fill-rule="evenodd"/><path fill="#289e55" d="M 51.015625 38.511719 C 51.0625 38.8125 51.109375 39.128906 51.15625 39.464844 C 51.253906 40.144531 51.257812 40.890625 51.183594 41.671875 C 48.871094 42.53125 46.65625 42.425781 44.539062 41.34375 C 44.5625 40.488281 44.523438 39.605469 44.433594 38.652344 C 46.570312 39.003906 48.75 39.070312 51.011719 38.511719 Z M 51.015625 38.511719 " fill-opacity="1" fill-rule="evenodd"/><path fill="#44c26c" d="M 44.601562 41.375 L 44.539062 41.34375 C 44.550781 40.917969 44.546875 40.480469 44.527344 40.035156 L 44.527344 39.992188 L 44.519531 39.867188 L 44.519531 39.863281 C 44.511719 39.738281 44.507812 39.613281 44.5 39.484375 L 44.496094 39.453125 L 44.496094 39.441406 L 44.488281 39.355469 L 44.488281 39.3125 L 44.484375 39.289062 L 44.480469 39.226562 L 44.476562 39.207031 L 44.476562 39.183594 L 44.464844 39.039062 L 44.464844 39.007812 L 44.460938 38.964844 L 44.457031 38.953125 L 44.457031 38.917969 L 44.453125 38.875 L 44.453125 38.867188 L 44.4375 38.699219 C 44.4375 38.699219 44.433594 38.652344 44.433594 38.652344 C 44.691406 38.695312 44.949219 38.734375 45.207031 38.769531 C 45.117188 39.699219 44.953125 40.574219 44.601562 41.375 Z M 44.601562 41.375 " fill-opacity="1" fill-rule="evenodd"/><path fill="#289e55" d="M 51.570312 29.820312 C 51.058594 30.953125 50.75 31.863281 50.589844 32.6875 C 48.679688 33.003906 45.945312 32.390625 44.644531 30.28125 C 44.863281 29.289062 45.636719 27.472656 46.210938 26.871094 L 46.222656 26.855469 C 47.660156 28.789062 49.410156 29.722656 51.570312 29.820312 Z M 51.570312 29.820312 " fill-opacity="1" fill-rule="evenodd"/><path fill="#44c26c" d="M 45.894531 31.621094 C 45.410156 31.269531 44.980469 30.824219 44.644531 30.28125 C 45.058594 28.945312 45.617188 27.75 46.210938 26.871094 L 46.222656 26.855469 C 46.605469 27.371094 47.015625 27.820312 47.449219 28.195312 C 47.035156 28.804688 46.644531 29.527344 46.292969 30.425781 C 46.132812 30.828125 46.003906 31.226562 45.894531 31.621094 Z M 45.894531 31.621094 " fill-opacity="1" fill-rule="evenodd"/><path fill="#073e14" d="M 21.488281 21.402344 C 20.921875 20.324219 20.242188 19.382812 19.398438 18.597656 C 19.007812 18.261719 18.8125 17.726562 18.9375 17.1875 C 19.113281 16.417969 19.875 15.941406 20.636719 16.121094 C 22.503906 16.5625 24.414062 17.171875 26.238281 18.242188 C 28.09375 19.328125 29.832031 20.871094 31.304688 23.171875 C 32.117188 24.4375 32.855469 26.253906 33.261719 28.199219 C 33.613281 29.878906 33.71875 31.6875 33.421875 33.375 C 32.949219 36.03125 32.757812 37.984375 32.945312 39.957031 C 33.132812 41.933594 33.707031 44.007812 34.757812 46.910156 C 34.824219 47.089844 34.859375 47.28125 34.847656 47.484375 C 34.8125 48.269531 34.148438 48.878906 33.371094 48.839844 C 32.1875 48.78125 31.113281 48.710938 30.164062 48.628906 C 29.191406 48.542969 28.207031 48.433594 27.226562 48.304688 L 27.226562 48.300781 C 26.769531 48.242188 26.347656 47.957031 26.136719 47.503906 C 25.1875 45.511719 24.292969 42.964844 23.753906 40.542969 C 23.265625 38.355469 23.050781 36.222656 23.320312 34.609375 L 23.4375 33.90625 C 24.0625 30.167969 24.230469 29.167969 23.027344 25.285156 C 22.578125 23.84375 22.089844 22.535156 21.488281 21.402344 Z M 24.121094 20.328125 C 24.757812 21.589844 25.269531 22.960938 25.726562 24.4375 C 27.132812 28.96875 26.941406 30.109375 26.230469 34.375 L 26.113281 35.078125 C 25.90625 36.3125 26.097656 38.058594 26.511719 39.917969 C 26.945312 41.859375 27.621094 43.882812 28.359375 45.574219 C 28.984375 45.644531 29.667969 45.714844 30.40625 45.777344 C 30.738281 45.808594 31.074219 45.832031 31.402344 45.859375 C 30.707031 43.714844 30.300781 41.964844 30.136719 40.222656 C 29.917969 37.957031 30.121094 35.785156 30.640625 32.871094 C 30.871094 31.578125 30.777344 30.144531 30.496094 28.78125 C 30.160156 27.179688 29.570312 25.714844 28.933594 24.722656 C 27.730469 22.847656 26.320312 21.589844 24.820312 20.710938 C 24.589844 20.574219 24.355469 20.449219 24.121094 20.328125 Z M 24.121094 20.328125 " fill-opacity="1" fill-rule="nonzero"/><path fill="#44c26c" d="M 20.316406 17.511719 C 22.289062 19.320312 23.441406 21.839844 24.378906 24.863281 C 25.753906 29.304688 25.476562 30.25 24.714844 34.84375 C 24.207031 37.90625 25.714844 43.332031 27.410156 46.890625 C 29.191406 47.125 31.230469 47.304688 33.4375 47.414062 C 31.246094 41.367188 31.039062 38.691406 32.03125 33.121094 C 32.605469 29.894531 31.464844 26.042969 30.121094 23.945312 C 27.441406 19.769531 23.824219 18.34375 20.316406 17.511719 Z M 20.316406 17.511719 " fill-opacity="1" fill-rule="evenodd"/><path fill="#289e55" d="M 25.886719 43.003906 C 26.207031 43.996094 26.566406 44.96875 26.945312 45.859375 C 28.816406 46.199219 30.71875 46.015625 32.605469 44.976562 C 32.257812 43.875 31.996094 42.882812 31.8125 41.9375 C 29.851562 42.777344 27.878906 43.082031 25.886719 43.003906 Z M 25.886719 43.003906 " fill-opacity="1" fill-rule="evenodd"/><path fill="#8ef290" d="M 31.558594 36.457031 C 31.652344 35.441406 31.8125 34.351562 32.03125 33.121094 C 32.605469 29.894531 31.464844 26.042969 30.121094 23.945312 C 27.441406 19.769531 23.824219 18.34375 20.316406 17.511719 C 26.914062 19.796875 31.855469 26.058594 31.558594 36.457031 Z M 31.558594 36.457031 " fill-opacity="1" fill-rule="evenodd"/><path fill="#289e55" d="M 25.125 32.332031 C 25.019531 33.046875 24.878906 33.863281 24.714844 34.84375 C 24.707031 34.902344 24.695312 34.964844 24.6875 35.027344 C 26.464844 36.84375 28.746094 37.34375 31.558594 36.472656 C 31.644531 35.523438 31.789062 34.511719 31.984375 33.375 C 29.363281 33.980469 27.128906 33.5 25.125 32.332031 Z M 25.125 32.332031 " fill-opacity="1" fill-rule="evenodd"/><path fill="#44c26c" d="M 31.648438 35.609375 L 31.652344 35.582031 L 31.65625 35.5625 L 31.660156 35.53125 L 31.660156 35.515625 L 31.675781 35.378906 L 31.679688 35.375 L 31.683594 35.328125 C 31.683594 35.328125 31.691406 35.28125 31.691406 35.28125 L 31.691406 35.277344 L 31.695312 35.234375 L 31.695312 35.226562 C 31.695312 35.226562 31.703125 35.183594 31.703125 35.183594 L 31.703125 35.175781 L 31.710938 35.136719 L 31.710938 35.125 L 31.714844 35.089844 L 31.71875 35.074219 L 31.722656 35.042969 L 31.734375 34.972656 L 31.738281 34.945312 L 31.738281 34.921875 L 31.742188 34.898438 L 31.746094 34.871094 L 31.75 34.847656 L 31.753906 34.816406 L 31.757812 34.800781 L 31.761719 34.765625 L 31.765625 34.75 L 31.769531 34.714844 L 31.769531 34.703125 L 31.777344 34.660156 L 31.777344 34.652344 L 31.785156 34.609375 L 31.785156 34.605469 L 31.808594 34.453125 L 31.808594 34.449219 L 31.816406 34.40625 L 31.816406 34.398438 L 31.824219 34.355469 L 31.824219 34.34375 L 31.832031 34.304688 L 31.835938 34.289062 L 31.839844 34.253906 L 31.84375 34.234375 L 31.847656 34.207031 L 31.851562 34.183594 L 31.859375 34.128906 L 31.863281 34.105469 L 31.867188 34.074219 L 31.871094 34.054688 L 31.875 34.019531 L 31.878906 34.003906 L 31.886719 33.964844 L 31.886719 33.949219 L 31.894531 33.910156 L 31.894531 33.898438 L 31.902344 33.855469 L 31.90625 33.847656 L 31.914062 33.800781 L 31.914062 33.796875 C 31.914062 33.796875 31.921875 33.746094 31.921875 33.746094 C 31.921875 33.746094 31.929688 33.691406 31.929688 33.691406 C 31.929688 33.691406 31.9375 33.640625 31.9375 33.640625 L 31.941406 33.632812 L 31.949219 33.589844 L 31.949219 33.578125 L 31.957031 33.535156 L 31.960938 33.519531 L 31.964844 33.484375 L 31.96875 33.464844 L 31.976562 33.429688 L 31.980469 33.410156 L 31.984375 33.378906 C 31.820312 33.414062 31.65625 33.449219 31.492188 33.480469 C 31.5625 34.429688 31.585938 35.421875 31.554688 36.457031 C 31.582031 36.179688 31.613281 35.898438 31.648438 35.609375 Z M 31.648438 35.609375 " fill-opacity="1" fill-rule="evenodd"/><path fill="#289e55" d="M 23.441406 22.238281 C 23.824219 23.15625 24.503906 25.335938 24.792969 26.285156 C 26.761719 27.082031 30.164062 26.441406 30.824219 25.25 C 30.332031 24.199219 29.726562 23.28125 28.976562 22.390625 C 27.160156 23.28125 25.292969 22.894531 23.441406 22.238281 Z M 23.441406 22.238281 " fill-opacity="1" fill-rule="evenodd"/><path fill="#44c26c" d="M 29.699219 26.109375 C 30.230469 25.882812 30.636719 25.589844 30.824219 25.253906 C 30.824219 25.253906 30.800781 25.203125 30.800781 25.203125 C 30.535156 24.644531 30.242188 24.125 29.910156 23.628906 L 29.878906 23.585938 L 29.863281 23.5625 L 29.851562 23.539062 C 29.6875 23.300781 29.519531 23.074219 29.351562 22.851562 L 29.34375 22.84375 L 29.316406 22.8125 L 29.25 22.726562 L 29.21875 22.683594 L 29.183594 22.640625 L 29.152344 22.601562 L 29.046875 22.472656 L 29.011719 22.433594 L 28.976562 22.390625 C 28.5625 22.59375 28.148438 22.730469 27.726562 22.8125 C 28.484375 23.796875 29.148438 24.894531 29.699219 26.109375 Z M 29.699219 26.109375 " fill-opacity="1" fill-rule="evenodd"/><g clip-path="url(#42010e379d)"><path fill="#073e14" d="M 21.105469 34.058594 C 21.816406 35.550781 22.46875 36.183594 23.171875 36.863281 C 23.539062 37.21875 23.914062 37.585938 24.285156 38.007812 C 26.863281 40.964844 27.039062 42.328125 27.421875 45.257812 L 27.480469 45.695312 C 28.058594 45.765625 28.667969 45.828125 29.300781 45.882812 C 29.804688 45.929688 30.332031 45.96875 30.878906 46.003906 C 30.835938 45.8125 30.792969 45.621094 30.753906 45.425781 L 30.75 45.421875 C 30.585938 44.640625 30.441406 43.789062 30.304688 42.84375 C 30.136719 41.683594 29.65625 40.476562 29.035156 39.382812 C 28.304688 38.09375 27.394531 36.980469 26.574219 36.277344 C 25.082031 35.003906 24.050781 34.78125 22.964844 34.546875 C 22.375 34.421875 21.773438 34.292969 21.105469 34.054688 Z M 21.480469 38.640625 C 20.167969 37.371094 18.996094 36.234375 17.613281 31.78125 C 17.46875 31.398438 17.503906 30.957031 17.746094 30.609375 C 18.136719 30.054688 18.921875 29.945312 19.496094 30.367188 C 21.167969 31.601562 22.300781 31.84375 23.371094 32.074219 C 24.796875 32.378906 26.140625 32.667969 28.144531 34.378906 L 28.148438 34.382812 C 29.183594 35.265625 30.316406 36.640625 31.203125 38.207031 C 31.972656 39.566406 32.570312 41.089844 32.789062 42.605469 C 32.917969 43.484375 33.050781 44.277344 33.207031 45.019531 L 33.203125 45.019531 C 33.351562 45.71875 33.523438 46.375 33.730469 47.015625 C 33.773438 47.140625 33.792969 47.273438 33.796875 47.410156 C 33.800781 48.109375 33.242188 48.648438 32.546875 48.617188 C 31.386719 48.570312 30.269531 48.496094 29.210938 48.40625 C 28.136719 48.3125 27.144531 48.199219 26.25 48.066406 C 25.6875 47.984375 25.214844 47.527344 25.128906 46.933594 C 25.035156 46.304688 24.976562 45.863281 24.925781 45.460938 C 24.613281 43.074219 24.46875 41.964844 22.433594 39.628906 C 22.082031 39.226562 21.777344 38.929688 21.476562 38.640625 Z M 21.480469 38.640625 " fill-opacity="1" fill-rule="nonzero"/></g><path fill="#44c26c" d="M 18.785156 31.378906 C 20.441406 36.75 21.707031 36.925781 23.359375 38.820312 C 26.050781 41.90625 25.820312 43.074219 26.371094 46.816406 C 28.121094 47.070312 30.214844 47.253906 32.539062 47.355469 C 32.101562 46.011719 31.8125 44.550781 31.546875 42.722656 C 31.128906 39.824219 29.085938 36.804688 27.359375 35.328125 C 23.929688 32.398438 22.667969 34.234375 18.785156 31.378906 Z M 18.785156 31.378906 " fill-opacity="1" fill-rule="evenodd"/><path fill="#8ef290" d="M 32.539062 47.355469 C 32.101562 46.011719 31.8125 44.550781 31.546875 42.722656 C 31.128906 39.824219 29.085938 36.804688 27.359375 35.328125 C 23.929688 32.398438 22.667969 34.234375 18.785156 31.378906 C 22.15625 35.824219 24.898438 34.105469 28.21875 38.410156 C 30.605469 41.5 30.652344 45.105469 32.429688 47.347656 Z M 32.539062 47.355469 " fill-opacity="1" fill-rule="evenodd"/><path fill="#289e55" d="M 26.316406 46.425781 L 26.371094 46.816406 C 28.121094 47.070312 30.214844 47.257812 32.539062 47.355469 C 32.308594 46.640625 32.117188 45.894531 31.949219 45.074219 C 30.222656 45.859375 28.386719 46.398438 26.316406 46.425781 Z M 26.316406 46.425781 " fill-opacity="1" fill-rule="evenodd"/><path fill="#44c26c" d="M 32.539062 47.355469 C 32.425781 47.007812 32.324219 46.652344 32.230469 46.285156 L 32.226562 46.277344 L 32.21875 46.25 L 32.191406 46.140625 L 32.191406 46.136719 C 32.164062 46.027344 32.136719 45.917969 32.109375 45.804688 L 32.105469 45.78125 L 32.101562 45.769531 L 32.085938 45.691406 L 32.074219 45.65625 L 32.070312 45.632812 L 32.058594 45.578125 L 32.054688 45.5625 L 32.050781 45.539062 L 32.023438 45.414062 L 32.015625 45.386719 L 32.007812 45.347656 L 32.003906 45.339844 L 32 45.308594 L 31.992188 45.269531 L 31.988281 45.265625 L 31.957031 45.113281 L 31.949219 45.074219 C 31.742188 45.167969 31.53125 45.261719 31.320312 45.347656 C 31.621094 46.085938 31.96875 46.765625 32.429688 47.351562 Z M 32.539062 47.355469 " fill-opacity="1" fill-rule="evenodd"/><path fill="#289e55" d="M 23.570312 39.066406 C 24.304688 39.929688 24.804688 40.644531 25.15625 41.316406 C 26.863281 41.164062 29.027344 40.023438 29.582031 37.917969 C 29.136719 37.109375 28.003906 35.71875 27.359375 35.328125 L 27.347656 35.320312 C 26.628906 37.304688 25.382812 38.5 23.570312 39.066406 Z M 23.570312 39.066406 " fill-opacity="1" fill-rule="evenodd"/><path fill="#44c26c" d="M 28.867188 39.351562 C 29.1875 38.9375 29.4375 38.457031 29.582031 37.917969 C 28.882812 36.859375 28.09375 35.953125 27.359375 35.328125 L 27.347656 35.320312 C 27.15625 35.851562 26.925781 36.328125 26.65625 36.746094 C 27.164062 37.179688 27.683594 37.714844 28.21875 38.410156 C 28.457031 38.71875 28.671875 39.03125 28.867188 39.351562 Z M 28.867188 39.351562 " fill-opacity="1" fill-rule="evenodd"/></svg>